<svg xmlns="http://www.w3.org/2000/svg" viewBox="0 0 510 150"><defs><style>.cls-1{fill:red;}.cls-2{fill:#474747;}.cls-3{fill:#fff;}</style></defs><title>TF_Logo</title><g id="Logos"><path class="cls-1" d="M350,101.2h-1.88q-6.19,0-9.57-3.29t-3.37-9.49V74q0-6.19,3.37-9.49t9.57-3.29h18.1c1.15,0,1.73.55,1.73,1.65V99.55c0,1.1-.58,1.65-1.73,1.65h-6.58A1.46,1.46,0,0,1,358,99.55V97h-.31a6,6,0,0,1-3.06,3.18A10.56,10.56,0,0,1,350,101.2Zm8-14.58V70.71c0-.58-.31-.87-.94-.87h-7.37a4.79,4.79,0,0,0-3.52,1.06,5.08,5.08,0,0,0-1,3.57V88a5.08,5.08,0,0,0,1,3.57,4.79,4.79,0,0,0,3.52,1.06h2.9Q358,92.58,358,86.62Z"/><path class="cls-1" d="M376.58,99.55V47.74a1.46,1.46,0,0,1,1.65-1.65h6.66a1.45,1.45,0,0,1,1.64,1.65V65.38h.32a6,6,0,0,1,3.06-3.22,10.2,10.2,0,0,1,4.62-1.1H397q6.19,0,9.56,3.3T410,73.84V88.42q0,6.19-3.37,9.49T397,101.2H378.23A1.46,1.46,0,0,1,376.58,99.55Zm10.82-7h8A3.91,3.91,0,0,0,400,88V74.31A5,5,0,0,0,399,70.74a5,5,0,0,0-3.57-1h-3.45c-3.6,0-5.41,2-5.41,6V91.71A.77.77,0,0,0,387.4,92.58Z"/><path class="cls-1" d="M426.12,101.2h-6.66a1.46,1.46,0,0,1-1.65-1.65V62.87a1.46,1.46,0,0,1,1.65-1.65h6.66a1.45,1.45,0,0,1,1.64,1.65v2.66h.32a6.06,6.06,0,0,1,3.06-3.21,10.2,10.2,0,0,1,4.62-1.1h2.82c1.05,0,1.57.55,1.57,1.65v5.41a1.86,1.86,0,0,1-.35,1.29,1.49,1.49,0,0,1-1.22.27h-5.41c-3.6,0-5.41,2-5.41,6.12V99.55A1.45,1.45,0,0,1,426.12,101.2Z"/><path class="cls-1" d="M445.56,54.48V47.66a1.39,1.39,0,0,1,1.56-1.57h6.82c1.05,0,1.57.5,1.57,1.49v6.9a1.39,1.39,0,0,1-1.57,1.57h-6.82A1.38,1.38,0,0,1,445.56,54.48Zm0,45.07V62.87q0-1.65,1.56-1.65h6.75a1.46,1.46,0,0,1,1.64,1.65V99.55a1.81,1.81,0,0,1-.35,1.33,1.84,1.84,0,0,1-1.22.32H447.2A1.46,1.46,0,0,1,445.56,99.55Z"/><path class="cls-1" d="M490,94.22v5.41a1.68,1.68,0,0,1-.35,1.21,1.82,1.82,0,0,1-1.3.36H476.67q-6.18,0-9.56-3.29t-3.37-9.49V74q0-6.19,3.37-9.49t9.56-3.29h11.68A1.46,1.46,0,0,1,490,62.87v5.41a1.7,1.7,0,0,1-.35,1.21,1.82,1.82,0,0,1-1.3.35H478.24a4.8,4.8,0,0,0-3.48,1.06,4.93,4.93,0,0,0-1.06,3.57V88a4.93,4.93,0,0,0,1.06,3.57,4.8,4.8,0,0,0,3.48,1.06h10.11A1.45,1.45,0,0,1,490,94.22Z"/><path class="cls-1" d="M319.08,46.09h17.14a1.29,1.29,0,0,1,1.29,1.29V55a1.29,1.29,0,0,1-1.29,1.29H311.7A1.29,1.29,0,0,1,310.42,55v-.21A8.66,8.66,0,0,1,319.08,46.09Z"/><path class="cls-1" d="M329.28,61.22H301.55a1.29,1.29,0,0,0-1.29,1.29v7.42a1.45,1.45,0,0,0,1.44,1.45h8.72V99.5a1.7,1.7,0,0,0,1.7,1.7h6.75a1.7,1.7,0,0,0,1.7-1.7V71.38h8.71a1.45,1.45,0,0,0,1.45-1.45V62.67A1.45,1.45,0,0,0,329.28,61.22Z"/><path class="cls-2" d="M177.5,61.22H149.76a1.29,1.29,0,0,0-1.29,1.29v7.42a1.45,1.45,0,0,0,1.45,1.45h8.71V99.5a1.7,1.7,0,0,0,1.7,1.7h6.76a1.7,1.7,0,0,0,1.7-1.7V71.38h8.71A1.45,1.45,0,0,0,179,69.93V62.67A1.45,1.45,0,0,0,177.5,61.22Z"/><path class="cls-2" d="M215.52,101.2H198.19q-6.19,0-9.56-3.29t-3.37-9.49V74q0-6.19,3.37-9.49t9.56-3.29h6.2q6.18,0,9.56,3.29T217.32,74V84a1.46,1.46,0,0,1-1.65,1.65H196c-.63,0-.94.29-.94.86v1.73a4.75,4.75,0,0,0,1.06,3.48,4.89,4.89,0,0,0,3.56,1.06h15.84c1.09,0,1.64.58,1.64,1.73v5.17a1.68,1.68,0,0,1-.35,1.22A1.86,1.86,0,0,1,215.52,101.2ZM196,78.94h10.66a.77.77,0,0,0,.86-.87V74.31a4.91,4.91,0,0,0-1-3.53,4.93,4.93,0,0,0-3.52-1h-3.3a4.92,4.92,0,0,0-3.52,1,4.91,4.91,0,0,0-1,3.53v3.76A.76.76,0,0,0,196,78.94Z"/><path class="cls-2" d="M250.24,94.22v5.41a1.73,1.73,0,0,1-.35,1.22,1.87,1.87,0,0,1-1.3.35H236.91q-6.18,0-9.56-3.29T224,88.42V74q0-6.19,3.37-9.49t9.56-3.29h11.68a1.46,1.46,0,0,1,1.65,1.65v5.41a1.7,1.7,0,0,1-.35,1.21,1.82,1.82,0,0,1-1.3.35H238.48A4.84,4.84,0,0,0,235,70.9a5,5,0,0,0-1.05,3.57V88A5,5,0,0,0,235,91.52a4.84,4.84,0,0,0,3.49,1.06h10.11A1.45,1.45,0,0,1,250.24,94.22Z"/><path class="cls-2" d="M265.29,101.2h-6.66A1.46,1.46,0,0,1,257,99.55V47.74a1.46,1.46,0,0,1,1.65-1.65h6.66a1.46,1.46,0,0,1,1.65,1.65V65.45h.31q1.72-4.23,7.68-4.23h2.51q12.3,0,12.31,12.78V99.55c0,1.1-.58,1.65-1.73,1.65h-6.58a1.46,1.46,0,0,1-1.65-1.65V74.47a4.93,4.93,0,0,0-1.06-3.57,4.93,4.93,0,0,0-3.56-1.06h-2.83q-5.4,0-5.4,6V99.55A1.46,1.46,0,0,1,265.29,101.2Z"/><path class="cls-1" d="M350,101.2h-1.88q-6.19,0-9.57-3.29t-3.37-9.49V74q0-6.19,3.37-9.49t9.57-3.29h18.1c1.15,0,1.73.55,1.73,1.65V99.55c0,1.1-.58,1.65-1.73,1.65h-6.58A1.46,1.46,0,0,1,358,99.55V97h-.31a6,6,0,0,1-3.06,3.18A10.56,10.56,0,0,1,350,101.2Zm8-14.58V70.71c0-.58-.31-.87-.94-.87h-7.37a4.79,4.79,0,0,0-3.52,1.06,5.08,5.08,0,0,0-1,3.57V88a5.08,5.08,0,0,0,1,3.57,4.79,4.79,0,0,0,3.52,1.06h2.9Q358,92.58,358,86.62Z"/><path class="cls-1" d="M376.58,99.55V47.74a1.46,1.46,0,0,1,1.65-1.65h6.66a1.45,1.45,0,0,1,1.64,1.65V65.38h.32a6,6,0,0,1,3.06-3.22,10.2,10.2,0,0,1,4.62-1.1H397q6.19,0,9.56,3.3T410,73.84V88.42q0,6.19-3.37,9.49T397,101.2H378.23A1.46,1.46,0,0,1,376.58,99.55Zm10.82-7h8A3.91,3.91,0,0,0,400,88V74.31A5,5,0,0,0,399,70.74a5,5,0,0,0-3.57-1h-3.45c-3.6,0-5.41,2-5.41,6V91.71A.77.77,0,0,0,387.4,92.58Z"/><path class="cls-1" d="M426.12,101.2h-6.66a1.46,1.46,0,0,1-1.65-1.65V62.87a1.46,1.46,0,0,1,1.65-1.65h6.66a1.45,1.45,0,0,1,1.64,1.65v2.66h.32a6.06,6.06,0,0,1,3.06-3.21,10.2,10.2,0,0,1,4.62-1.1h2.82c1.05,0,1.57.55,1.57,1.65v5.41a1.86,1.86,0,0,1-.35,1.29,1.49,1.49,0,0,1-1.22.27h-5.41c-3.6,0-5.41,2-5.41,6.12V99.55A1.45,1.45,0,0,1,426.12,101.2Z"/><path class="cls-1" d="M445.56,54.48V47.66a1.39,1.39,0,0,1,1.56-1.57h6.82c1.05,0,1.57.5,1.57,1.49v6.9a1.39,1.39,0,0,1-1.57,1.57h-6.82A1.38,1.38,0,0,1,445.56,54.48Zm0,45.07V62.87q0-1.65,1.56-1.65h6.75a1.46,1.46,0,0,1,1.64,1.65V99.55a1.81,1.81,0,0,1-.35,1.33,1.84,1.84,0,0,1-1.22.32H447.2A1.46,1.46,0,0,1,445.56,99.55Z"/><path class="cls-1" d="M490,94.22v5.41a1.68,1.68,0,0,1-.35,1.21,1.82,1.82,0,0,1-1.3.36H476.67q-6.18,0-9.56-3.29t-3.37-9.49V74q0-6.19,3.37-9.49t9.56-3.29h11.68A1.46,1.46,0,0,1,490,62.87v5.41a1.7,1.7,0,0,1-.35,1.21,1.82,1.82,0,0,1-1.3.35H478.24a4.8,4.8,0,0,0-3.48,1.06,4.93,4.93,0,0,0-1.06,3.57V88a4.93,4.93,0,0,0,1.06,3.57,4.8,4.8,0,0,0,3.48,1.06h10.11A1.45,1.45,0,0,1,490,94.22Z"/><path class="cls-1" d="M319.08,46.09h17.14a1.29,1.29,0,0,1,1.29,1.29V55a1.29,1.29,0,0,1-1.29,1.29H311.7A1.29,1.29,0,0,1,310.42,55v-.21A8.66,8.66,0,0,1,319.08,46.09Z"/><path class="cls-1" d="M329.28,61.22H301.55a1.29,1.29,0,0,0-1.29,1.29v7.42a1.45,1.45,0,0,0,1.44,1.45h8.72V99.5a1.7,1.7,0,0,0,1.7,1.7h6.75a1.7,1.7,0,0,0,1.7-1.7V71.38h8.71a1.45,1.45,0,0,0,1.45-1.45V62.67A1.45,1.45,0,0,0,329.28,61.22Z"/><path class="cls-2" d="M177.5,61.22H149.76a1.29,1.29,0,0,0-1.29,1.29v7.42a1.45,1.45,0,0,0,1.45,1.45h8.71V99.5a1.7,1.7,0,0,0,1.7,1.7h6.76a1.7,1.7,0,0,0,1.7-1.7V71.38h8.71A1.45,1.45,0,0,0,179,69.93V62.67A1.45,1.45,0,0,0,177.5,61.22Z"/><path class="cls-2" d="M215.52,101.2H198.19q-6.19,0-9.56-3.29t-3.37-9.49V74q0-6.19,3.37-9.49t9.56-3.29h6.2q6.18,0,9.56,3.29T217.32,74V84a1.46,1.46,0,0,1-1.65,1.65H196c-.63,0-.94.29-.94.86v1.73a4.75,4.75,0,0,0,1.06,3.48,4.89,4.89,0,0,0,3.56,1.06h15.84c1.09,0,1.64.58,1.64,1.73v5.17a1.68,1.68,0,0,1-.35,1.22A1.86,1.86,0,0,1,215.52,101.2ZM196,78.94h10.66a.77.77,0,0,0,.86-.87V74.31a4.91,4.91,0,0,0-1-3.53,4.93,4.93,0,0,0-3.52-1h-3.3a4.92,4.92,0,0,0-3.52,1,4.91,4.91,0,0,0-1,3.53v3.76A.76.76,0,0,0,196,78.94Z"/><path class="cls-2" d="M250.24,94.22v5.41a1.73,1.73,0,0,1-.35,1.22,1.87,1.87,0,0,1-1.3.35H236.91q-6.18,0-9.56-3.29T224,88.42V74q0-6.19,3.37-9.49t9.56-3.29h11.68a1.46,1.46,0,0,1,1.65,1.65v5.41a1.7,1.7,0,0,1-.35,1.21,1.82,1.82,0,0,1-1.3.35H238.48A4.84,4.84,0,0,0,235,70.9a5,5,0,0,0-1.05,3.57V88A5,5,0,0,0,235,91.52a4.84,4.84,0,0,0,3.49,1.06h10.11A1.45,1.45,0,0,1,250.24,94.22Z"/><path class="cls-2" d="M265.29,101.2h-6.66A1.46,1.46,0,0,1,257,99.55V47.74a1.46,1.46,0,0,1,1.65-1.65h6.66a1.46,1.46,0,0,1,1.65,1.65V65.45h.31q1.72-4.23,7.68-4.23h2.51q12.3,0,12.31,12.78V99.55c0,1.1-.58,1.65-1.73,1.65h-6.58a1.46,1.46,0,0,1-1.65-1.65V74.47a4.93,4.93,0,0,0-1.06-3.57,4.93,4.93,0,0,0-3.56-1.06h-2.83q-5.4,0-5.4,6V99.55A1.46,1.46,0,0,1,265.29,101.2Z"/><path class="cls-1" d="M119.47,127.29a7.87,7.87,0,0,0,7.85-7.85V27.85A7.87,7.87,0,0,0,119.47,20H27.85A7.87,7.87,0,0,0,20,27.85v91.59a7.87,7.87,0,0,0,7.85,7.85Z"/><path class="cls-3" d="M77,46.09H94.13a1.38,1.38,0,0,1,1.28,1.4l0,7.58a1.18,1.18,0,0,1-1.3,1.14H69.57a1.3,1.3,0,0,1-1.29-1.3v-.2A8.67,8.67,0,0,1,77,46.09Z"/><path class="cls-3" d="M87.27,61.11h-28A1.25,1.25,0,0,0,58,62.35V70a1.24,1.24,0,0,0,1.24,1.24H68V99.45a1.7,1.7,0,0,0,1.69,1.71l6.75,0a1.71,1.71,0,0,0,1.72-1.69V71.27h9.07A1.23,1.23,0,0,0,88.5,70V62.35A1.24,1.24,0,0,0,87.27,61.11Z"/></g></svg>